<svg width="44" height="44" viewBox="0 0 44 44" fill="none" xmlns="http://www.w3.org/2000/svg">
<rect width="44" height="44" rx="22" fill="#1A1A1C"/>
<path d="M14 13C14 12.4477 14.4477 12 15 12H17C17.5523 12 18 12.4477 18 13V31C18 31.5523 17.5523 32 17 32H15C14.4477 32 14 31.5523 14 31V13Z" fill="#F5F5F7"/>
<path d="M16 30L28 14" stroke="#F5F5F7" stroke-width="4" stroke-linecap="round"/>
<path d="M26 13C26 12.4477 26.4477 12 27 12H29C29.5523 12 30 12.4477 30 13V31C30 31.5523 29.5523 32 29 32H27C26.4477 32 26 31.5523 26 31V13Z" fill="#F5F5F7"/>
<path d="M28 11L30.5 8.5" stroke="#F5F5F7" stroke-width="1.5" stroke-linecap="round" opacity="0.6"/>
<path d="M30.5 8.5L30.5 11" stroke="#F5F5F7" stroke-width="1.5" stroke-linecap="round" opacity="0.6"/>
<path d="M30.5 8.5L28 8.5" stroke="#F5F5F7" stroke-width="1.5" stroke-linecap="round" opacity="0.6"/>
</svg>
